<mxfile host="65bd71144e">
    <diagram id="1AbZKj4YZR-5bFhZtAhm" name="Page-1">
        <mxGraphModel dx="1260" dy="2675" grid="1" gridSize="10" guides="1" tooltips="1" connect="1" arrows="1" fold="1" page="1" pageScale="1" pageWidth="850" pageHeight="1100" math="0" shadow="0">
            <root>
                <mxCell id="0"/>
                <mxCell id="1" parent="0"/>
                <mxCell id="2" value="&lt;pre&gt;&lt;font style=&quot;font-size: 14px;&quot; face=&quot;Times New Roman&quot;&gt;&lt;b&gt;&lt;br&gt;    Comment       &lt;br&gt;------------------&lt;br&gt; -commenterName: string &lt;br&gt; -text: string    &lt;br&gt;------------------&lt;br&gt;GetCommenterName(): string&lt;br&gt; GetText(): string &lt;br&gt;&lt;br&gt;&lt;/b&gt;&lt;/font&gt;&lt;/pre&gt;" style="whiteSpace=wrap;html=1;aspect=fixed;" vertex="1" parent="1">
                    <mxGeometry x="510" y="-1420" width="200" height="200" as="geometry"/>
                </mxCell>
                <mxCell id="3" value="&lt;pre&gt;&lt;br&gt;   &lt;font style=&quot;font-size: 14px;&quot; face=&quot;Times New Roman&quot;&gt; Video        &lt;br&gt;------------------&lt;br&gt; -title: string   &lt;br&gt; -author: string  &lt;br&gt; -lengthInSeconds: int &lt;br&gt; -comments: List&amp;lt;Comment&amp;gt; &lt;br&gt;------------------&lt;br&gt;AddComment(comment): void &lt;br&gt;GetCommentCount(): int    &lt;/font&gt;&lt;/pre&gt;&lt;pre&gt;&lt;font size=&quot;3&quot; face=&quot;Times New Roman&quot;&gt;GetTitle(): string        &lt;br&gt;GetAuthor(): string       &lt;br&gt; GetLength(): int          &lt;br&gt; GetComments(): List&amp;lt;Comment&amp;gt; &lt;/font&gt;&lt;/pre&gt;" style="whiteSpace=wrap;html=1;aspect=fixed;" vertex="1" parent="1">
                    <mxGeometry x="730" y="-1450" width="365" height="365" as="geometry"/>
                </mxCell>
                <mxCell id="4" value="&lt;div&gt;&lt;font face=&quot;Times New Roman&quot; style=&quot;font-size: 12px;&quot; color=&quot;#000000&quot;&gt;YouTubeVideos Project&lt;/font&gt;&lt;/div&gt;&lt;div&gt;&lt;font face=&quot;Times New Roman&quot; size=&quot;3&quot;&gt;&lt;font color=&quot;#000000&quot;&gt;This C# console application simulates a basic YouTube-like video platform. Each video has a title, author, duration, and a list of user comments.&lt;/font&gt;&lt;span style=&quot;background-color: transparent;&quot;&gt;Class Struct&amp;nbsp;&lt;/span&gt;&lt;span style=&quot;background-color: transparent;&quot;&gt;Comment&lt;/span&gt;&lt;/font&gt;&lt;/div&gt;&lt;div&gt;&lt;font face=&quot;Times New Roman&quot; size=&quot;3&quot;&gt;&lt;font color=&quot;#000000&quot;&gt;Represents a user comment with a name and message.&amp;nbsp;&lt;/font&gt;&lt;span style=&quot;background-color: transparent;&quot;&gt;Video&lt;/span&gt;&lt;/font&gt;&lt;/div&gt;&lt;div&gt;&lt;font face=&quot;Times New Roman&quot; size=&quot;3&quot; color=&quot;#000000&quot;&gt;Encapsulates video details and manages a list of comments.&lt;/font&gt;&lt;/div&gt;&lt;div&gt;&lt;font face=&quot;Times New Roman&quot; size=&quot;3&quot; color=&quot;#000000&quot;&gt;Features&lt;/font&gt;&lt;/div&gt;&lt;div&gt;&lt;font face=&quot;Times New Roman&quot; size=&quot;3&quot; color=&quot;#000000&quot;&gt;- Create multiple videos with metadata&lt;/font&gt;&lt;/div&gt;&lt;div&gt;&lt;font face=&quot;Times New Roman&quot; size=&quot;3&quot; color=&quot;#000000&quot;&gt;- Add multiple comments per video&lt;/font&gt;&lt;/div&gt;&lt;div&gt;&lt;font face=&quot;Times New Roman&quot; size=&quot;3&quot; color=&quot;#000000&quot;&gt;- Display video details and all associated comments&lt;/font&gt;&lt;/div&gt;&lt;div&gt;&lt;font face=&quot;Times New Roman&quot; size=&quot;3&quot; color=&quot;#000000&quot;&gt;- Count total comments per video&lt;/font&gt;&lt;/div&gt;&lt;div&gt;&lt;font face=&quot;Times New Roman&quot; size=&quot;3&quot;&gt;&lt;br&gt;&lt;/font&gt;&lt;/div&gt;&lt;div&gt;&lt;br&gt;&lt;/div&gt;" style="whiteSpace=wrap;html=1;aspect=fixed;" vertex="1" parent="1">
                    <mxGeometry x="170" y="-1470" width="330" height="330" as="geometry"/>
                </mxCell>
                <mxCell id="6" value="" style="endArrow=none;dashed=1;html=1;" edge="1" parent="1">
                    <mxGeometry width="50" height="50" relative="1" as="geometry">
                        <mxPoint y="-1040" as="sourcePoint"/>
                        <mxPoint x="1353" y="-1040" as="targetPoint"/>
                    </mxGeometry>
                </mxCell>
                <mxCell id="7" value="Class Diagram: Online Ordering System" style="text;whiteSpace=wrap;html=1;" vertex="1" parent="1">
                    <mxGeometry x="240" y="-1010" width="250" height="40" as="geometry"/>
                </mxCell>
                <mxCell id="8" value="&lt;pre&gt;    &lt;b&gt;&lt;font style=&quot;font-size: 18px;&quot; face=&quot;Times New Roman&quot;&gt; Address      &lt;br&gt;------------------&lt;br&gt; -street: string  &lt;br&gt; -city: string    &lt;br&gt; -state: string   &lt;br&gt;-country: string &lt;br&gt;------------------&lt;br&gt;IsInUSA(): bool &lt;br&gt;GetFullAddress(): string&lt;/font&gt;&lt;/b&gt; &lt;/pre&gt;" style="whiteSpace=wrap;html=1;aspect=fixed;" vertex="1" parent="1">
                    <mxGeometry x="640" y="-680" width="250" height="250" as="geometry"/>
                </mxCell>
                <mxCell id="9" value="&lt;pre&gt;&lt;font style=&quot;font-size: 18px;&quot; face=&quot;Times New Roman&quot;&gt;&lt;b&gt; Customer      &lt;br&gt;-----------------&lt;br&gt;-name: string    &lt;br&gt;-address: Address&lt;br&gt;------------------&lt;br&gt;LivesInUSA(): bool&lt;br&gt;GetName(): string &lt;br&gt;GetAddress(): string&lt;/b&gt;&lt;/font&gt;&lt;/pre&gt;" style="whiteSpace=wrap;html=1;aspect=fixed;" vertex="1" parent="1">
                    <mxGeometry x="620" y="-950" width="260" height="260" as="geometry"/>
                </mxCell>
                <mxCell id="10" value="&lt;pre&gt;    &lt;font style=&quot;font-size: 18px;&quot; face=&quot;Times New Roman&quot;&gt;&lt;b&gt; Order        &lt;br&gt;------------------&lt;br&gt; -customer: Customer &lt;br&gt; -products: List&amp;lt;Product&amp;gt; &lt;br&gt;-----------------&lt;br&gt;AddProduct(product): void &lt;br&gt;GetTotalPrice(): double   &lt;br&gt;GetPackingLabel(): string &lt;br&gt;GetShippingLabel(): string&lt;/b&gt;&lt;/font&gt; &lt;/pre&gt;" style="whiteSpace=wrap;html=1;aspect=fixed;" vertex="1" parent="1">
                    <mxGeometry x="940" y="-680" width="240" height="240" as="geometry"/>
                </mxCell>
                <mxCell id="11" value="&lt;pre&gt;&lt;font style=&quot;font-size: 18px;&quot; face=&quot;Times New Roman&quot;&gt;&lt;b&gt;   Product       &lt;br/&gt;-----------------&lt;br/&gt; -name: string   &lt;br/&gt; -productId: string &lt;br/&gt; -price: double   &lt;br/&gt; -quantity: int   &lt;br/&gt;------------------&lt;br/&gt;GetTotalCost(): double &lt;br/&gt;GetPackingInfo(): string&lt;/b&gt;&lt;/font&gt; &lt;/pre&gt;" style="whiteSpace=wrap;html=1;aspect=fixed;" vertex="1" parent="1">
                    <mxGeometry x="900" y="-980" width="290" height="290" as="geometry"/>
                </mxCell>
                <mxCell id="12" value="&lt;div&gt;&lt;font face=&quot;Times New Roman&quot; style=&quot;font-size: 18px;&quot; color=&quot;#000000&quot;&gt;&lt;b&gt;Online Ordering System&lt;/b&gt;&lt;/font&gt;&lt;/div&gt;&lt;div&gt;&lt;font size=&quot;3&quot; face=&quot;Times New Roman&quot; color=&quot;#000000&quot;&gt;&lt;b&gt;This C# console application simulates an online ordering system. It allows customers to place orders containing multiple products and calculates total cost including shipping.&lt;/b&gt;&lt;/font&gt;&lt;/div&gt;&lt;div&gt;&lt;font size=&quot;3&quot; face=&quot;Times New Roman&quot; color=&quot;#000000&quot;&gt;&lt;b&gt;&amp;nbsp;Class Structure&lt;/b&gt;&lt;/font&gt;&lt;/div&gt;&lt;div&gt;&lt;span style=&quot;background-color: transparent;&quot;&gt;&lt;font size=&quot;3&quot; face=&quot;Times New Roman&quot;&gt;&lt;b&gt;Address&lt;/b&gt;&lt;/font&gt;&lt;/span&gt;&lt;/div&gt;&lt;div&gt;&lt;font size=&quot;3&quot; face=&quot;Times New Roman&quot; color=&quot;#000000&quot;&gt;&lt;b&gt;Stores customer address details and determines if the customer lives in the USA.&lt;/b&gt;&lt;/font&gt;&lt;/div&gt;&lt;div&gt;&lt;span style=&quot;background-color: transparent;&quot;&gt;&lt;font size=&quot;3&quot; face=&quot;Times New Roman&quot;&gt;&lt;b&gt;Customer&lt;/b&gt;&lt;/font&gt;&lt;/span&gt;&lt;/div&gt;&lt;div&gt;&lt;font size=&quot;3&quot; face=&quot;Times New Roman&quot; color=&quot;#000000&quot;&gt;&lt;b&gt;Represents a customer and links to their address.&lt;/b&gt;&lt;/font&gt;&lt;/div&gt;&lt;div&gt;&lt;span style=&quot;background-color: transparent;&quot;&gt;&lt;font size=&quot;3&quot; face=&quot;Times New Roman&quot;&gt;&lt;b&gt;Product&lt;/b&gt;&lt;/font&gt;&lt;/span&gt;&lt;/div&gt;&lt;div&gt;&lt;font size=&quot;3&quot; face=&quot;Times New Roman&quot; color=&quot;#000000&quot;&gt;&lt;b&gt;Defines product attributes and calculates total cost based on quantity.&lt;/b&gt;&lt;/font&gt;&lt;/div&gt;&lt;div&gt;&lt;span style=&quot;background-color: transparent;&quot;&gt;&lt;font size=&quot;3&quot; face=&quot;Times New Roman&quot;&gt;&lt;b&gt;&amp;nbsp;Order&lt;/b&gt;&lt;/font&gt;&lt;/span&gt;&lt;/div&gt;&lt;div&gt;&lt;font size=&quot;3&quot; face=&quot;Times New Roman&quot; color=&quot;#000000&quot;&gt;&lt;b&gt;Handles product aggregation, shipping logic, and label generation.&lt;/b&gt;&lt;/font&gt;&lt;/div&gt;&lt;div&gt;&lt;span style=&quot;background-color: transparent;&quot;&gt;&lt;font size=&quot;3&quot; face=&quot;Times New Roman&quot;&gt;&lt;b&gt;&amp;nbsp;Features&lt;/b&gt;&lt;/font&gt;&lt;/span&gt;&lt;/div&gt;&lt;div&gt;&lt;font size=&quot;3&quot; face=&quot;Times New Roman&quot; color=&quot;#000000&quot;&gt;&lt;b&gt;- Add multiple products to an order&lt;/b&gt;&lt;/font&gt;&lt;/div&gt;&lt;div&gt;&lt;font size=&quot;3&quot; face=&quot;Times New Roman&quot; color=&quot;#000000&quot;&gt;&lt;b&gt;- Calculate total cost including shipping:&lt;/b&gt;&lt;/font&gt;&lt;/div&gt;&lt;div&gt;&lt;font size=&quot;3&quot; face=&quot;Times New Roman&quot; color=&quot;#000000&quot;&gt;&lt;b&gt;&amp;nbsp; - $5 for USA&lt;/b&gt;&lt;/font&gt;&lt;/div&gt;&lt;div&gt;&lt;font size=&quot;3&quot; face=&quot;Times New Roman&quot; color=&quot;#000000&quot;&gt;&lt;b&gt;&amp;nbsp; - $35 for international&lt;/b&gt;&lt;/font&gt;&lt;/div&gt;&lt;div&gt;&lt;font size=&quot;3&quot; face=&quot;Times New Roman&quot; color=&quot;#000000&quot;&gt;&lt;b&gt;- Generate packing and shipping labels&lt;/b&gt;&lt;/font&gt;&lt;/div&gt;&lt;div&gt;&lt;font size=&quot;3&quot; face=&quot;Times New Roman&quot; color=&quot;#000000&quot;&gt;&lt;b&gt;- Display formatted output for multiple order&lt;/b&gt;&lt;/font&gt;&lt;/div&gt;&lt;div&gt;&lt;br&gt;&lt;/div&gt;" style="whiteSpace=wrap;html=1;aspect=fixed;" vertex="1" parent="1">
                    <mxGeometry x="120" y="-920" width="460" height="460" as="geometry"/>
                </mxCell>
            </root>
        </mxGraphModel>
    </diagram>
</mxfile>